<svg width="408" height="412" viewBox="0 0 408 412" fill="none" xmlns="http://www.w3.org/2000/svg">
<path d="M203.542 411.692C315.955 411.692 407.083 319.532 407.083 205.846C407.083 92.1605 315.955 0 203.542 0C91.1287 0 0 92.1605 0 205.846C0 319.532 91.1287 411.692 203.542 411.692Z" fill="#87CEB0"/>
<path d="M236.205 237.234C191.387 307.103 203.667 395.968 203.667 395.968C203.667 395.968 288.611 371.552 333.429 301.683C378.247 231.814 365.967 142.949 365.967 142.949C365.967 142.949 281.022 167.364 236.205 237.234Z" fill="#3F3D56"/>
<path d="M205.987 396C205.987 396 204.877 395.823 202.834 395.409C201.205 395.078 198.961 394.605 196.222 393.955C171.731 388.173 106.619 368.628 64.0497 317.242C10.77 252.896 13.0135 163 13.0135 163C13.0135 163 94.4801 176.255 148.161 234.037C150.488 236.52 152.751 239.094 154.951 241.758C201.311 297.744 205.633 373.074 205.975 391.696C206.023 394.487 205.987 396 205.987 396Z" fill="#222F65"/>
<path fill-rule="evenodd" clip-rule="evenodd" d="M170.878 237.234C215.696 307.103 203.416 395.968 203.416 395.968C203.416 395.968 118.472 371.552 73.6541 301.683C28.8363 231.814 41.1165 142.949 41.1165 142.949C41.1165 142.949 126.061 167.364 170.878 237.234Z" stroke="#3F3D56" stroke-width="2"/>
<path opacity="0.1" d="M203.542 391.759C202.354 393.211 201.307 394.449 200.446 395.464C198.537 397.67 197.454 398.827 197.454 398.827C197.454 398.827 196.139 397.151 193.928 394.013C181.788 376.858 142.74 315.858 145.754 245.397C145.917 241.704 146.185 238.05 146.557 234.436C148.85 236.913 151.081 239.482 153.25 242.14C198.944 298.007 203.204 373.176 203.542 391.759Z" fill="black"/>
<path d="M271.224 250.562C267.65 333.852 206.258 398.827 206.258 398.827C206.258 398.827 150.661 328.761 154.235 245.47C157.809 162.18 219.2 97.2051 219.2 97.2051C219.2 97.2051 274.798 167.271 271.224 250.562Z" fill="#222F65"/>
<path d="M206.369 395.968L219.09 100.064" stroke="#3F3D56" stroke-width="2"/>
<path d="M289.764 265.885V42.8845V265.885Z" fill="#3F3D56"/>
<path d="M289.764 265.885V42.8845" stroke="#3F3D56" stroke-width="2"/>
<path d="M289.764 60.0386C298.351 60.0386 305.312 52.9985 305.312 44.3142C305.312 35.6299 298.351 28.5898 289.764 28.5898C281.177 28.5898 274.216 35.6299 274.216 44.3142C274.216 52.9985 281.177 60.0386 289.764 60.0386Z" fill="#3F3D56"/>
<path d="M289.764 107.212C289.764 107.212 287.594 59.1973 243.119 64.7783L289.764 107.212Z" fill="#3F3D56"/>
</svg>
